<?xml version="1.0" encoding="UTF-8"?>
<svg id="Layer_1" data-name="Layer 1" xmlns="http://www.w3.org/2000/svg" viewBox="0 0 712.51 149.42">
  <defs>
    <style>
      .cls-1 {
        fill: #fff;
      }
    </style>
  </defs>
  <g>
    <path class="cls-1" d="M175,123.65V-.15h29.03v113.77l10.89,10.89h41.84l10.89-10.89V-.15h29.03v123.8l-25.61,25.62h-70.44l-25.62-25.62Z"/>
    <path class="cls-1" d="M321.42,126.36v-21.35h28.6v12.59l7.04,7.04h44.19l7.26-7.26v-24.76l-7.04-7.04h-56.56l-23.05-23.05V23.05L344.9,0h67.45l23.05,23.05v21.56h-28.6v-12.81l-7.04-7.04h-42.27l-7.04,7.04v21.99l7.04,7.04h56.56l23.05,23.05v42.05l-23.48,23.48h-69.16l-23.05-23.05Z"/>
    <path class="cls-1" d="M462.11,123.65V-.15h29.03v113.77l10.89,10.89h41.84l10.89-10.89V-.15h29.03v123.8l-25.61,25.62h-70.44l-25.62-25.62Z"/>
    <path class="cls-1" d="M608.77-.15h29.03v124.87h74.71v24.55h-103.74V-.15Z"/>
  </g>
  <g>
    <polygon class="cls-1" points="109.43 32.54 131.32 10.65 131.32 -.29 21.89 -.29 0 21.59 0 32.52 0 32.54 0 43.46 10.93 32.54 109.43 32.54"/>
    <polygon class="cls-1" points="139.06 18.39 117.17 40.28 117.17 138.76 106.23 149.71 117.17 149.71 117.17 149.71 128.11 149.71 150 127.82 150 18.39 139.06 18.39"/>
    <polygon class="cls-1" points="106.23 43.46 82.99 43.46 0 126.44 0 149.71 23.16 149.71 106.23 66.64 106.23 43.46"/>
  </g>
</svg>